# AST/ASF file generated using VICON BodyLanguage
# -----------------------------------------------
:version 1.10
:name VICON
:units
  mass 1.0
  length 0.45
  angle deg
:documentation
   .ast/.asf automatically generated from VICON data using
   VICON BodyBuilder and BodyLanguage model FoxedUp or BRILLIANT.MOD
:root
   order TX TY TZ RX RY RZ
   axis XYZ
   position 0 0 0  
   orientation 0 0 0 
:bonedata
  begin
     id 1 
     name lhipjoint
     direction 0.440178 -0.822639 0.359871 
     length 2.53113 
     axis 0 0 0  XYZ
  end
  begin
     id 2 
     name lfemur
     direction 0.34202 -0.939693 0  
     length 7.88132  
     axis 0 0 20  XYZ
    dof rx ry rz
    limits (-160.0 20.0)
           (-70.0 70.0)
           (-60.0 70.0)
  end
  begin
     id 3 
     name ltibia
     direction 0.34202 -0.939693 0   
     length 8.43783   
     axis 0 0 20   XYZ
    dof rx
    limits (-10.0 170.0)
  end
  begin
     id 4 
     name lfoot
     direction 0.0886351 -0.243523 0.965837   
     length 2.63414   
     axis -90 7.62852e-016 20   XYZ
    dof rx rz
    limits (-45.0 90.0)
           (-70.0 20.0)
  end
  begin
     id 5 
     name ltoes
     direction 1.53703e-011 -4.21717e-011 1   
     length 1.31427   
     axis -90 7.62852e-016 20   XYZ
    dof rx
    limits (-90.0 20.0)
  end
  begin
     id 6 
     name rhipjoint
     direction -0.399779 -0.839773 0.367367   
     length 2.47948  
     axis 0 0 0  XYZ 
  end
  begin
     id 7 
     name rfemur
     direction -0.34202 -0.939693 0   
     length 7.74806   
     axis 0 0 -20   XYZ
    dof rx ry rz
    limits (-160.0 20.0)
           (-70.0 70.0)
           (-70.0 60.0)
  end
  begin
     id 8 
     name rtibia
     direction -0.34202 -0.939693 0   
     length 8.74432   
     axis 0 0 -20   XYZ
    dof rx
    limits (-10.0 170.0)
 end
 begin
     id 9 
     name rfoot
     direction -0.108514 -0.298139 0.948334   
     length 2.66102  
     axis -90 -7.62852e-016 -20   XYZ
    dof rx rz
    limits (-45.0 90.0)
           (-20.0 70.0)
  end
  begin
     id 10 
     name rtoes
     direction -1.53392e-011 -4.22077e-011 1   
     length 1.31983   
     axis -90 -7.62852e-016 -20   XYZ
    dof rx
    limits (-90.0 20.0)
  end
  begin
     id 11 
     name lowerback
     direction 0.0113257 0.999866 0.0118602   
     length 2.58694   
     axis 0 0 0   XYZ
    dof rx ry rz
    limits (-20.0 45.0)
           (-30.0 30.0)
           (-30.0 30.0)
  end
  begin
     id 12 
     name upperback
     direction -0.0164747 0.995193 -0.0965375   
     length 2.52368   
     axis 0 0 0   XYZ
    dof rx ry rz
    limits (-20.0 45.0)
           (-30.0 30.0)
           (-30.0 30.0)
  end
  begin
     id 13 
     name thorax
     direction -0.0194301 0.99433 -0.104552   
     length 2.56099   
     axis 0 0 0   XYZ
    dof rx ry rz
    limits (-20.0 45.0)
           (-30.0 30.0)
           (-30.0 30.0)
  end
  begin
     id 14 
     name lowerneck
     direction 0.0148543 0.995587 -0.092657   
     length 1.71582   
     axis 0 0 0   XYZ
    dof rx ry rz
    limits (-20.0 45.0)
           (-30.0 30.0)
           (-30.0 30.0)
  end
  begin
     id 15 
     name upperneck
     direction -0.0135467 0.993656 -0.111639   
     length 1.68937   
     axis 0 0 0   XYZ
    dof rx ry rz
    limits (-20.0 45.0)
           (-30.0 30.0)
           (-30.0 30.0)
  end
  begin
     id 16
     name head
     direction -0.00615349 0.999547 -0.029448  
     length 1.7462  
     axis 0 0 0   XYZ
    dof rx ry rz
    limits (-20.0 45.0)
           (-30.0 30.0)
           (-30.0 30.0)
  end
  begin
     id 17 
     name lclavicle
     direction 0.988267 0.149885 0.0293713  
     length 4.47222  
     axis 0 0 0   XYZ
    dof ry rz
    limits (-20.0 10.0)
           (0.0 20.0)
  end
  begin
     id 18 
     name lhumerus
     direction 1 -4.48986e-011 -1.14833e-027   
     length 5.37148   
     axis 180 -30 -90   XYZ
    dof rx ry rz
    limits (-60.0 90.0)
           (-90.0 90.0)
           (-90.0 90.0)
  end
  begin
     id 19
     name lradius
     direction 0.999998 0.00170963 -0.000987055   
     length 3.94212   
     axis 180 -30 -90   XYZ
    dof rx
    limits (-10.0 170.0)
  end
  begin
     id 20
     name lwrist
     direction 0.999998 7.53149e-005 -0.00194706   
     length 1.97106   
     axis 4.65056e-015 90 90   XYZ
    dof ry
    limits (-180.0 0.0)
 end
  begin
     id 21 
     name lhand
     direction 1 -4.48973e-011 -1.31746e-026   
     length 1.17917   
     axis 8.4065e-015 90 90   XYZ
    dof rx rz
    limits (-90.0 90.0)
           (-45.0 45.0)
  end
  begin
     id 22 
     name lfingers
     direction 1 -4.49107e-011 -2.63492e-026   
     length 0.950679   
     axis 1.6813e-014 90 90   XYZ
    dof rx
    limits (0.0 90.0)
  end
  begin
     id 23
     name lthumb
     direction 0.707107 -6.35048e-011 0.707107   
     length 1.36499   
     axis -90 45 2.85299e-015   XYZ
    dof rx rz
    limits (-45.0 45.0)
           (-45.0 45.0)
  end
  begin
     id 24 
     name rclavicle
     direction -0.996699 0.0642895 -0.0495725   
     length 4.62611  
     axis 0 0 0   XYZ 
    dof ry rz
    limits (-10.0 20.0)
           (-20.0 0.0)
  end
  begin
     id 25 
     name rhumerus
     direction -1 -4.48919e-011 -2.41059e-027  
     length 5.4981   
     axis 180 30 90   XYZ
    dof rx ry rz
    limits (-90.0 60.0)
           (-90.0 90.0)
           (-90.0 90.0)
  end
  begin
     id 26 
     name rradius
     direction -0.999999 0.00118101 -0.000681858   
     length 3.48381   
     axis 180 30 90   XYZ
    dof rx
    limits (-10.0 170.0)
  end
  begin
     id 27 
     name rwrist
     direction -0.999999 0.000321823 -0.00132288   
     length 1.7419   
     axis 4.65056e-015 -90 -90   XYZ
    dof ry
    limits (-180.0 0.0)
  end
  begin
     id 28
     name rhand
     direction -1 -4.49022e-011 -1.31746e-026   
     length 1.34932   
     axis 8.4065e-015 -90 -90   XYZ
    dof rx rz
    limits (-90.0 90.0)
           (-45.0 45.0)
  end
  begin
     id 29
     name rfingers
     direction -1 -4.49178e-011 -2.63492e-026   
     length 1.08785   
     axis 1.6813e-014 -90 -90   XYZ
    dof rx
    limits (0.0 90.0)
  end
  begin
     id 30
     name rthumb
     direction -0.707107 -6.34713e-011 0.707107   
     length 1.56195   
     axis -90 -45 -2.85299e-015   XYZ
    dof rx rz
    limits (-45.0 45.0)
           (-45.0 45.0)
  end
:hierarchy
  begin
    root lhipjoint rhipjoint lowerback
    lhipjoint lfemur
    lfemur ltibia
    ltibia lfoot
    lfoot ltoes
    rhipjoint rfemur
    rfemur rtibia
    rtibia rfoot
    rfoot rtoes
    lowerback upperback
    upperback thorax
    thorax lowerneck lclavicle rclavicle
    lowerneck upperneck
    upperneck head
    lclavicle lhumerus
    lhumerus lradius
    lradius lwrist
    lwrist lhand lthumb
    lhand lfingers
    rclavicle rhumerus
    rhumerus rradius
    rradius rwrist
    rwrist rhand rthumb
    rhand rfingers
  end

#!OML:ASF X:\für Bonn\!DataBase\2005_08_10_Bjorn_Final\c3d\bjorn.ASF
:FULLY-SPECIFIED
:DEGREES
16
root 2.26369 18.6122 2.47425 -171.827 -19.8373 171.713
lowerback 10.1041 1.34358 0.379798
upperback 12.9969 0.0373167 -5.81825
thorax 8.22526 -0.454991 -6.58823
lowerneck -6.62951 -5.79701 -5.9018
upperneck -0.3092 -7.6509 10.1787
head 1.78613 -3.72026 4.11412
rclavicle 4.05521e-014 2.98177e-014
rhumerus -29.7751 -8.76501 -90.7021
rradius 33.9983
rwrist 8.0081
rhand -9.55421 15.6126
rfingers 7.12502
rthumb 16.4129 -13.713
lclavicle 4.05521e-014 2.98177e-014
lhumerus -21.7831 -27.2462 85.9555
lradius 56.523
lwrist -12.3262
lhand -31.212 -13.3118
lfingers 7.12502
lthumb -4.48787 16.6206
rfemur -30.678 -5.48655 9.80965
rtibia 47.9564
rfoot -20.3556 5.73482
rtoes -15.0957
lfemur -20.3645 -6.14342 -20.5594
ltibia 51.4491
lfoot -18.2968 -9.4713
ltoes -19.4643
17
root 2.27102 18.6382 2.45077 -171.907 -19.7935 171.759
lowerback 9.95298 1.16885 0.734983
upperback 12.9591 -0.154882 -5.71832
thorax 8.2489 -0.514035 -6.67388
lowerneck -6.75976 -5.65869 -5.64359
upperneck -0.195065 -7.47357 9.85019
head 1.80096 -3.62929 3.95339
rclavicle -5.1684e-015 5.32743e-014
rhumerus -29.9044 -9.43251 -90.3449
rradius 34.3549
rwrist 7.93397
rhand -9.58716 15.7272
rfingers 7.12502
rthumb 16.3812 -13.6011
lclavicle -5.1684e-015 5.32743e-014
lhumerus -22.3069 -27.5516 85.9018
lradius 56.1715
lwrist -11.8802
lhand -31.2642 -12.7046
lfingers 7.12502
lthumb -4.53821 17.2267
rfemur -30.3063 -5.42676 9.88385
rtibia 47.5284
rfoot -20.2336 5.83177
rtoes -14.9425
lfemur -20.0314 -6.4475 -20.7152
ltibia 54.0764
lfoot -17.6719 -8.55751
ltoes -19.0674
18
root 2.27766 18.6691 2.42612 -172.022 -19.7054 171.852
lowerback 9.78102 1.00668 1.10051
upperback 12.9357 -0.333991 -5.60531
thorax 8.30159 -0.566476 -6.75385
lowerneck -7.05079 -5.53254 -5.39094
upperneck 0.00391327 -7.30993 9.46534
head 1.87275 -3.54086 3.77013
rclavicle 1.66979e-014 4.49253e-014
rhumerus -29.8668 -10.0465 -89.9699
rradius 34.6714
rwrist 7.74084
rhand -9.50497 15.7452
rfingers 7.12502
rthumb 16.4603 -13.5765
lclavicle 1.66979e-014 4.49253e-014
lhumerus -22.6566 -27.9047 85.828
lradius 55.6498
lwrist -11.4334
lhand -31.4815 -12.3968
lfingers 7.12502
lthumb -4.74812 17.53
rfemur -29.8846 -5.36591 10.0075
rtibia 47.0392
rfoot -20.0788 5.97068
rtoes -14.7806
lfemur -19.7873 -6.76329 -20.8256
ltibia 57.0952
lfoot -16.9575 -7.77859
ltoes -16.6858
19
root 2.2842 18.6981 2.39972 -172.175 -19.5751 171.978
lowerback 9.61335 0.835688 1.41181
upperback 12.9027 -0.529003 -5.45782
thorax 8.33605 -0.633655 -6.76409
lowerneck -7.39857 -5.38062 -5.15804
upperneck 0.22219 -7.10359 8.96463
head 1.95393 -3.43172 3.55297
rclavicle -4.57205e-014 -1.55052e-014
rhumerus -29.7438 -10.4771 -89.5522
rradius 34.93
rwrist 7.4095
rhand -9.41318 15.7492
rfingers 7.12502
rthumb 16.5487 -13.5652
lclavicle -4.57205e-014 -1.55052e-014
lhumerus -22.9463 -28.1761 85.801
lradius 55.0118
lwrist -10.9532
lhand -31.8824 -12.5666
lfingers 7.12502
lthumb -5.13517 17.3511
rfemur -29.4174 -5.25686 10.1597
rtibia 46.4984
rfoot -19.8998 6.09967
rtoes -14.7032
lfemur -19.6157 -6.92566 -20.9464
ltibia 60.4412
lfoot -16.4881 -6.86075
ltoes -14.7499
20
root 2.29051 18.7263 2.37254 -172.35 -19.381 172.154
lowerback 9.43671 0.678208 1.73404
upperback 12.8611 -0.706431 -5.30838
thorax 8.36773 -0.691019 -6.77953
lowerneck -7.75853 -5.21302 -5.02998
upperneck 0.40438 -6.86913 8.53868
head 2.03389 -3.30998 3.38542
rclavicle 3.39922e-014 -2.0276e-014
rhumerus -29.6605 -10.9367 -89.1449
rradius 35.2506
rwrist 7.08978
rhand -9.25692 15.7575
rfingers 7.12502
rthumb 16.6991 -13.5442
lclavicle 3.39922e-014 -2.0276e-014
lhumerus -23.2722 -28.4741 85.7633
lradius 54.4331
lwrist -10.4552
lhand -32.2429 -12.8251
lfingers 7.12502
lthumb -5.48329 17.084
rfemur -28.9531 -5.15856 10.3693
rtibia 45.9365
rfoot -19.6895 6.27832
rtoes -14.6153
lfemur -19.5711 -6.90452 -21.0453
ltibia 64.0598
lfoot -16.2855 -5.95736
ltoes -14.1829
21
root 2.2968 18.7572 2.34306 -172.521 -19.1505 172.403
lowerback 9.21644 0.532564 2.08545
upperback 12.7979 -0.862148 -5.13954
thorax 8.40223 -0.733236 -6.79138
lowerneck -8.13537 -5.04654 -5.02167
upperneck 0.588549 -6.62655 8.17178
head 2.12717 -3.18449 3.26275
rclavicle -2.08724e-014 -1.11319e-014
rhumerus -29.5793 -11.3977 -88.7581
rradius 35.5482
rwrist 6.80079
rhand -9.13704 15.794
rfingers 7.12502
rthumb 16.8145 -13.498
lclavicle -2.08724e-014 -1.11319e-014
lhumerus -23.6392 -28.8139 85.7377
lradius 53.913
lwrist -9.91405
lhand -32.5858 -13.155
lfingers 7.12502
lthumb -5.81435 16.7453
rfemur -28.5054 -5.04417 10.6588
rtibia 45.3525
rfoot -19.4671 6.47935
rtoes -14.4846
lfemur -19.7291 -6.70135 -21.0771
ltibia 67.9069
lfoot -16.1648 -4.9664
ltoes -15.1805
22
root 2.30263 18.7874 2.31309 -172.671 -18.8832 172.711
lowerback 8.96028 0.406233 2.49554
upperback 12.6973 -0.982588 -4.97398
thorax 8.41997 -0.749619 -6.84071
lowerneck -8.59632 -4.89934 -5.0961
upperneck 0.900655 -6.40492 7.86475
head 2.28836 -3.06576 3.175
rclavicle -3.18055e-015 3.53837e-014
rhumerus -29.5252 -11.8073 -88.3723
rradius 35.804
rwrist 6.45989
rhand -9.04627 15.9181
rfingers 7.12502
rthumb 16.9019 -13.3664
lclavicle -3.18055e-015 3.53837e-014
lhumerus -24.1215 -29.1944 85.7285
lradius 53.5402
lwrist -9.41157
lhand -32.8302 -13.5166
lfingers 7.12502
lthumb -6.05025 16.377
rfemur -28.1034 -4.95921 11.0196
rtibia 44.7418
rfoot -19.2053 6.72444
rtoes -14.3787
lfemur -20.0637 -6.37805 -21.0388
ltibia 71.9625
lfoot -16.0913 -3.99363
ltoes -17.2991
23
root 2.30801 18.8186 2.28238 -172.81 -18.5966 173.048
lowerback 8.68297 0.295722 2.93337
upperback 12.5609 -1.07529 -4.81365
thorax 8.41294 -0.747741 -6.91134
lowerneck -9.055 -4.75645 -5.15733
upperneck 1.28331 -6.19059 7.57299
head 2.47523 -2.95044 3.09125
rclavicle 5.96354e-015 5.12864e-014
rhumerus -29.4857 -12.0636 -87.9965
rradius 35.9874
rwrist 5.94706
rhand -8.95841 16.1087
rfingers 7.12502
rthumb 16.9865 -13.1686
lclavicle 5.96354e-015 5.12864e-014
lhumerus -24.7101 -29.628 85.742
lradius 53.271
lwrist -8.95825
lhand -33.056 -13.8454
lfingers 7.12502
lthumb -6.26826 16.0419
rfemur -27.7114 -4.92041 11.422
rtibia 44.1071
rfoot -18.9415 6.97937
rtoes -14.398
lfemur -20.5064 -5.96071 -20.9377
ltibia 76.2315
lfoot -16.1919 -3.24073
ltoes -19.0928
